<svg width="18" height="12" viewBox="0 0 18 12" fill="none" xmlns="http://www.w3.org/2000/svg">
<g clip-path="url(#clip0_4282_6705)">
<path d="M9.34752 0C10.5376 0 11.9385 0.481277 13.2541 1.25471C14.9641 2.25886 16.3921 3.60595 17.6633 5.14362C18.0974 5.66988 18.1087 6.29578 17.7031 6.79931C16.3851 8.43516 14.8746 9.83933 13.0494 10.8536C11.8237 11.5347 10.5283 11.9724 9.12177 11.999C7.86844 12.0227 6.69005 11.7045 5.56224 11.168C3.84008 10.3511 2.39332 9.14862 1.09784 7.73913C0.820099 7.43682 0.55126 7.12435 0.295068 6.80269C-0.0988229 6.30884 -0.098823 5.67907 0.297878 5.19102C1.57603 3.61949 3.02982 2.25644 4.76837 1.24068C6.08165 0.473054 7.47877 0 9.34752 0ZM8.99204 1.13814C8.03565 1.14249 7.12469 1.36837 6.25401 1.76259C4.21945 2.68403 2.60783 4.16462 1.17793 5.88222C1.09784 5.97896 1.12125 6.04668 1.19244 6.13229C2.4631 7.66415 3.89441 8.99673 5.63905 9.93655C6.58186 10.4444 7.57759 10.7811 8.64498 10.8488C9.6927 10.9156 10.695 10.6964 11.6542 10.2742C13.7332 9.35902 15.3702 7.8557 16.8244 6.10907C16.8994 6.01911 16.8755 5.95187 16.8099 5.87255C15.5205 4.31601 14.0667 2.9636 12.2874 2.02378C11.2542 1.47721 10.1629 1.142 8.99204 1.13814Z" fill="#A2A2A2"/>
<path d="M12.8707 5.99821C12.8706 6.78927 12.6434 7.56254 12.2178 8.22023C11.7921 8.87792 11.1872 9.39049 10.4795 9.69313C9.77181 9.99577 8.99309 10.0749 8.24185 9.92046C7.49061 9.76604 6.80057 9.38502 6.25901 8.82558C5.71744 8.26615 5.34867 7.55343 5.19933 6.77755C5.04998 6.00167 5.12677 5.19748 5.41999 4.46667C5.7132 3.73586 6.20967 3.11126 6.84661 2.67185C7.48355 2.23244 8.23236 1.99795 8.99834 1.99805C9.50708 1.99754 10.0109 2.10067 10.481 2.30152C10.9511 2.50238 11.3783 2.79703 11.738 3.16859C12.0977 3.54016 12.3829 3.98134 12.5772 4.46689C12.7716 4.95243 12.8714 5.4728 12.8707 5.99821V5.99821ZM11.7687 5.99821C11.7682 5.43227 11.6053 4.87918 11.3004 4.40888C10.9956 3.93858 10.5626 3.57219 10.0562 3.35603C9.54971 3.13987 8.99257 3.08366 8.45519 3.19451C7.9178 3.30535 7.42431 3.57827 7.03712 3.97875C6.64992 4.37924 6.38641 4.8893 6.27989 5.44445C6.17338 5.99959 6.22866 6.57489 6.43873 7.09759C6.6488 7.6203 7.00424 8.06693 7.46009 8.38102C7.91595 8.69511 8.45175 8.86255 8.99974 8.86217C9.73389 8.85898 10.437 8.55608 10.9558 8.01955C11.4745 7.48302 11.7667 6.7564 11.7687 5.99821V5.99821Z" fill="#A2A2A2"/>
</g>
<defs>
<clipPath id="clip0_4282_6705">
<rect width="18" height="12" fill="white"/>
</clipPath>
</defs>
</svg>
