<svg width="8" height="16" viewBox="0 0 8 16" fill="none" xmlns="http://www.w3.org/2000/svg">
<path d="M7.70986 0.670044L5.85835 0.666992C3.77825 0.666992 2.43399 2.08372 2.43399 4.27648V5.94069H0.572382C0.411517 5.94069 0.28125 6.07466 0.28125 6.23991V8.65116C0.28125 8.81641 0.411665 8.95023 0.572382 8.95023H2.43399V15.0346C2.43399 15.1998 2.56426 15.3337 2.72512 15.3337H5.15399C5.31486 15.3337 5.44512 15.1997 5.44512 15.0346V8.95023H7.62178C7.78265 8.95023 7.91291 8.81641 7.91291 8.65116L7.9138 6.23991C7.9138 6.16056 7.88306 6.08458 7.82854 6.02843C7.77403 5.97228 7.69976 5.94069 7.62252 5.94069H5.44512V4.52992C5.44512 3.85184 5.60242 3.50762 6.4623 3.50762L7.70956 3.50716C7.87028 3.50716 8.00055 3.37319 8.00055 3.2081V0.969105C8.00055 0.804164 7.87043 0.670349 7.70986 0.670044Z" fill="black"/>
</svg>
