<svg width="20" height="22" viewBox="0 0 20 22" fill="none" xmlns="http://www.w3.org/2000/svg">
<path d="M9.99901 20.1484C9.90706 20.1523 9.84189 20.1578 9.77583 20.1578C7.4107 20.1578 5.04498 20.1578 2.67867 20.1578C1.28467 20.1561 0.223671 19.2686 0.0205763 17.9454C0.00475719 17.8247 -0.00195583 17.7031 0.000489979 17.5815C0.000489979 12.5849 0.000489979 7.58837 0.000489979 2.5918C0.000489979 1.10193 1.14541 0 2.69206 0C5.97222 0 9.25225 0 12.5321 0C14.0886 0 15.2286 1.08475 15.2313 2.57762C15.2362 5.17629 15.2313 7.77582 15.2353 10.3732C15.2353 10.5257 15.2045 10.588 15.0264 10.6202C14.1619 10.7665 13.3777 11.1989 12.8093 11.8427C12.241 12.4865 11.9243 13.3012 11.9139 14.146C11.9112 14.3492 11.855 14.4514 11.6622 14.5528C10.5958 15.1134 10.0311 15.9911 10.0035 17.1618C9.98205 18.0704 9.99901 18.9799 9.99901 19.8889C9.99901 19.9688 9.99901 20.047 9.99901 20.1484ZM2.85721 10.0605C2.85721 10.4321 2.85721 10.8037 2.85721 11.1748C2.85989 11.6079 3.15984 11.912 3.57719 11.909C3.98561 11.9065 4.28245 11.6062 4.28423 11.1839C4.28721 10.4481 4.28721 9.71219 4.28423 8.97613C4.28423 8.5577 3.97892 8.25139 3.57496 8.24924C3.171 8.2471 2.86078 8.54997 2.85766 8.96711C2.85453 9.33184 2.85721 9.69615 2.85721 10.0605Z" fill="white"/>
<path d="M13.3373 15.5725C13.3373 15.084 13.3266 14.6192 13.3373 14.1548C13.3677 13.0808 14.1077 12.2164 15.1968 11.9711C16.6105 11.6528 18.0237 12.6847 18.0781 14.0826C18.0942 14.4972 18.0844 14.913 18.0861 15.3285C18.0861 15.4049 18.0861 15.4814 18.0861 15.5617C18.3093 15.5849 18.5124 15.5866 18.7044 15.6292C19.0677 15.7051 19.3932 15.8981 19.6271 16.1761C19.8611 16.4542 19.9895 16.8008 19.9912 17.1586C20.0002 18.2467 20.0019 19.3349 19.9912 20.4235C19.9878 20.8372 19.816 21.233 19.5129 21.5262C19.2098 21.8194 18.7993 21.9866 18.3696 21.992C16.5993 22.0029 14.8287 22.0029 13.0579 21.992C12.6244 21.9877 12.2102 21.8192 11.9049 21.5229C11.5997 21.2267 11.4281 20.8266 11.4273 20.4094C11.4184 19.35 11.422 18.2901 11.4273 17.2303C11.4304 16.2852 12.1205 15.6124 13.1052 15.5841C13.1708 15.5828 13.2364 15.5781 13.3373 15.5725ZM14.7724 15.5725H16.6471C16.6471 15.0526 16.6752 14.5444 16.6386 14.0405C16.6069 13.6109 16.1476 13.278 15.6941 13.2896C15.2299 13.3012 14.8014 13.6435 14.7795 14.0749C14.7509 14.5638 14.7737 15.0587 14.7737 15.5707L14.7724 15.5725Z" fill="white"/>
</svg>
