<svg width="239" height="30" viewBox="0 0 239 30" fill="none" xmlns="http://www.w3.org/2000/svg">
<path d="M13.6581 26.0674C13.2704 26.254 12.8957 26.4407 12.5079 26.6143C10.7257 27.4102 8.79735 27.8299 6.84433 27.8471C4.63552 27.8471 2.42672 27.8471 0.217909 27.8471H0.0654269C7.75205e-05 27.6561 7.75221e-05 0.937872 0.0349305 0.586259C0.113383 0.553621 0.199705 0.544567 0.283258 0.560213C2.43979 0.560213 4.60067 0.499441 6.7572 0.560213C12.3163 0.742531 16.6685 3.13437 19.2825 8.06998C21.8442 12.9101 21.3214 17.6764 18.1585 22.1475C17.8133 22.6181 17.4348 23.0635 17.0258 23.4802C17.8579 24.0271 21.1166 24.3484 23.4474 24.153V1.7366H27.2725V27.8037C27.2159 27.8732 27.1418 27.8515 27.0765 27.8515C24.859 27.8515 22.6414 27.8515 20.4196 27.8515C18.1393 27.8293 15.8978 27.2606 13.8846 26.1933L13.6581 26.0674ZM10.2774 23.5106C7.82815 21.0266 6.45583 17.6837 6.45583 14.2015C6.45583 10.7193 7.82815 7.37641 10.2774 4.89244C8.18182 4.04596 6.01222 4.24564 3.85133 4.22828V24.1574C5.82924 24.4178 9.07492 24.0966 10.2774 23.5106V23.5106ZM13.6494 21.5094C14.7036 20.6039 15.5495 19.4826 16.1293 18.2218C16.7091 16.961 17.0092 15.5905 17.0092 14.2037C17.0092 12.8168 16.7091 11.4463 16.1293 10.1856C15.5495 8.92479 14.7036 7.80343 13.6494 6.89794C12.5945 7.80303 11.7481 8.92425 11.1678 10.1851C10.5876 11.4459 10.2872 12.8166 10.2872 14.2037C10.2872 15.5907 10.5876 16.9615 11.1678 18.2223C11.7481 19.4831 12.5945 20.6043 13.6494 21.5094V21.5094Z" fill="black"/>
<path d="M39.1016 1.56252H44.7303C46.5933 1.53649 48.4534 1.71703 50.2763 2.10079C51.8796 2.47235 53.3863 3.1764 54.6983 4.16706C56.3248 5.38445 57.6289 6.97878 58.4972 8.81183C59.4055 10.7272 59.8658 12.8229 59.8434 14.9412C59.8434 19.612 58.0471 23.2019 54.4543 25.711C53.1288 26.6716 51.6284 27.366 50.0367 27.7555C48.2656 28.13 46.4578 28.3047 44.6475 28.2765H39.1016V1.56252ZM43.2011 5.40856V24.4304H44.9699C48.0254 24.4304 50.3968 23.8039 52.0843 22.5508C54.524 20.7074 55.7439 18.1708 55.7439 14.9412C55.7622 13.3739 55.41 11.8244 54.7157 10.418C54.1206 9.16386 53.2224 8.07652 52.1017 7.25345C50.3881 6.02352 48.0036 5.41001 44.9481 5.4129L43.2011 5.40856Z" fill="black"/>
<path d="M67.6807 5.04864C70.3354 2.40358 73.658 1.08105 77.6487 1.08105C81.6393 1.08105 84.962 2.40358 87.6166 5.04864C90.2684 7.68791 91.5957 10.9856 91.5986 14.9416C91.6015 18.8976 90.2742 22.1952 87.6166 24.8345C84.9649 27.4738 81.6423 28.7948 77.6487 28.7977C73.6551 28.8006 70.3325 27.4795 67.6807 24.8345C65.0261 22.1894 63.7002 18.8918 63.7031 14.9416C63.706 10.9913 65.0319 7.6937 67.6807 5.04864ZM70.5779 22.2082C71.4966 23.1417 72.5998 23.8749 73.8177 24.3613C75.0356 24.8478 76.3416 25.0769 77.653 25.0342C80.5197 25.0342 82.8781 24.0922 84.7282 22.2082C86.5783 20.3243 87.5034 17.9021 87.5034 14.9416C87.5034 11.9753 86.5783 9.55161 84.7282 7.67055C82.8781 5.78949 80.5197 4.84751 77.653 4.84462C76.3416 4.8019 75.0356 5.03102 73.8177 5.51747C72.5998 6.00392 71.4966 6.7371 70.5779 7.67055C68.7307 9.5545 67.8071 11.9782 67.8071 14.9416C67.8071 17.905 68.7307 20.3272 70.5779 22.2082Z" fill="black"/>
<path d="M96.7441 1.5625H100.844V24.4304H108.72V28.2764H96.7441V1.5625Z" fill="black"/>
<path d="M131.231 3.00366V7.81339C129.035 5.83972 126.61 4.85144 123.955 4.84855C121.051 4.84855 118.699 5.80355 116.902 7.71355C115.104 9.62355 114.199 12.0588 114.187 15.0193C114.149 16.3351 114.374 17.6454 114.851 18.8731C115.327 20.1009 116.045 21.2214 116.963 22.1688C117.868 23.1103 118.962 23.8518 120.173 24.3453C121.384 24.8389 122.686 25.0734 123.994 25.0338C126.646 25.0338 129.058 24.005 131.231 21.9474V26.7962C129.01 28.122 126.466 28.8143 123.877 28.7973C122.129 28.8351 120.392 28.5291 118.764 27.8967C117.135 27.2643 115.648 26.3179 114.388 25.1119C111.521 22.4408 110.088 19.0766 110.088 15.0193C110.088 10.7478 111.521 7.26354 114.388 4.56639C116.854 2.25124 120.083 1.09367 124.077 1.09367C126.597 1.02529 129.083 1.68893 131.231 3.00366V3.00366Z" fill="black"/>
<path d="M151.088 1.5625V5.40854H140.396V12.176H150.765V16.0221H140.396V24.4304H151.088V28.2764H136.297V1.5625H151.088Z" fill="black"/>
<path d="M162.707 1.5625H167.129L174.605 20.185L182.081 1.5625H186.503L174.605 29.9998L162.707 1.5625Z" fill="black"/>
<path d="M189.879 1.5625H193.978V28.2764H189.879V1.5625Z" fill="black"/>
<path d="M213.996 5.40854H207.845V28.2764H203.745V5.40854H197.594V1.5625H213.996V5.40854Z" fill="black"/>
<path d="M234.577 28.2767L231.772 21.8304H220.314L217.395 28.2767H212.951L226.296 0L238.999 28.2767H234.577ZM221.996 17.9844H230.116L226.134 8.93358L221.996 17.9844Z" fill="black"/>
</svg>
