<svg width="160" height="20" viewBox="0 0 160 20" fill="none" xmlns="http://www.w3.org/2000/svg">
<g clip-path="url(#clip0_4210_6667)">
<path d="M9.1054 17.3783C8.84693 17.5027 8.59713 17.6271 8.3386 17.7429C7.15047 18.2735 5.8649 18.5533 4.56289 18.5647C3.09035 18.5647 1.61781 18.5647 0.145273 18.5647H0.0436179C5.16802e-05 18.4374 5.16814e-05 0.625248 0.023287 0.390839C0.0755887 0.369081 0.133137 0.363045 0.188839 0.373475C1.62653 0.373475 3.06711 0.332961 4.5048 0.373475C8.21087 0.495021 11.1123 2.08958 12.855 5.37999C14.5628 8.60673 14.2143 11.7843 12.1057 14.765C11.8755 15.0787 11.6232 15.3757 11.3505 15.6535C11.9053 16.0181 14.0777 16.2323 15.6316 16.102V1.15773H18.1817V18.5358C18.1439 18.5821 18.0945 18.5677 18.051 18.5677C16.5727 18.5677 15.0943 18.5677 13.6131 18.5677C12.0929 18.5529 10.5985 18.1737 9.2564 17.4622L9.1054 17.3783ZM6.8516 15.6737C5.21877 14.0177 4.30389 11.7891 4.30389 9.46767C4.30389 7.1462 5.21877 4.91761 6.8516 3.26163C5.45455 2.69731 4.00815 2.83043 2.56755 2.81885V16.1049C3.88616 16.2785 6.04995 16.0644 6.8516 15.6737ZM9.0996 14.3396C9.8024 13.7359 10.3663 12.9884 10.7529 12.1479C11.1394 11.3073 11.3395 10.3937 11.3395 9.46913C11.3395 8.54453 11.1394 7.63087 10.7529 6.7904C10.3663 5.94986 9.8024 5.20229 9.0996 4.59863C8.39633 5.20202 7.83207 5.9495 7.4452 6.79007C7.0584 7.6306 6.85813 8.5444 6.85813 9.46913C6.85813 10.3938 7.0584 11.3077 7.4452 12.1482C7.83207 12.9887 8.39633 13.7362 9.0996 14.3396Z" fill="white"/>
<path d="M26.0684 1.04168H29.8208C31.0628 1.02433 32.3029 1.14469 33.5182 1.40053C34.587 1.64823 35.5915 2.1176 36.4662 2.77804C37.5505 3.58963 38.4199 4.65252 38.9988 5.87455C39.6043 7.15147 39.9112 8.5486 39.8962 9.9608C39.8962 13.0747 38.6987 15.4679 36.3035 17.1407C35.4198 17.7811 34.4196 18.244 33.3584 18.5037C32.1777 18.7533 30.9725 18.8698 29.7656 18.851H26.0684V1.04168ZM28.8014 3.60571V16.2869H29.9806C32.0176 16.2869 33.5985 15.8693 34.7235 15.0339C36.35 13.8049 37.1632 12.1139 37.1632 9.9608C37.1754 8.91593 36.9406 7.88293 36.4778 6.94533C36.081 6.10924 35.4822 5.38435 34.7351 4.83563C33.5927 4.01568 32.003 3.60667 29.966 3.6086L28.8014 3.60571Z" fill="white"/>
<path d="M45.1205 3.36576C46.8903 1.60239 49.1054 0.720703 51.7658 0.720703C54.4262 0.720703 56.6414 1.60239 58.4111 3.36576C60.179 5.12528 61.0638 7.32374 61.0658 9.96107C61.0677 12.5984 60.1828 14.7968 58.4111 16.5563C56.6433 18.3159 54.4282 19.1965 51.7658 19.1985C49.1034 19.2004 46.8884 18.3197 45.1205 16.5563C43.3508 14.7929 42.4668 12.5945 42.4688 9.96107C42.4707 7.32754 43.3546 5.12914 45.1205 3.36576ZM47.052 14.8055C47.6644 15.4278 48.3999 15.9166 49.2118 16.2409C50.0238 16.5652 50.8944 16.7179 51.7687 16.6895C53.6798 16.6895 55.2521 16.0615 56.4855 14.8055C57.7189 13.5495 58.3356 11.9347 58.3356 9.96107C58.3356 7.98354 57.7189 6.36774 56.4855 5.1137C55.2521 3.85966 53.6798 3.23168 51.7687 3.22975C50.8944 3.20127 50.0238 3.35402 49.2118 3.67832C48.3999 4.00262 47.6644 4.4914 47.052 5.1137C45.8205 6.36967 45.2048 7.98547 45.2048 9.96107C45.2048 11.9367 45.8205 13.5515 47.052 14.8055Z" fill="white"/>
<path d="M64.4961 1.0415H67.2294V16.2868H72.48V18.8508H64.4961V1.0415Z" fill="white"/>
<path d="M87.4879 2.0026V5.20909C86.0239 3.89331 84.4072 3.23445 82.6372 3.23253C80.7012 3.23253 79.1332 3.86919 77.9352 5.14253C76.7366 6.41586 76.1332 8.03936 76.1252 10.013C76.0999 10.8902 76.2499 11.7638 76.5679 12.5822C76.8852 13.4008 77.3639 14.1478 77.9759 14.7794C78.5792 15.407 79.3086 15.9014 80.1159 16.2304C80.9232 16.5594 81.7912 16.7158 82.6632 16.6894C84.4312 16.6894 86.0392 16.0035 87.4879 14.6318V17.8643C86.0072 18.7482 84.3112 19.2097 82.5852 19.1984C81.4199 19.2236 80.2619 19.0196 79.1766 18.598C78.0906 18.1764 77.0992 17.5454 76.2592 16.7414C74.3479 14.9607 73.3926 12.7179 73.3926 10.013C73.3926 7.16536 74.3479 4.84252 76.2592 3.04442C77.9032 1.50099 80.0559 0.729274 82.7186 0.729274C84.3986 0.683687 86.0559 1.12611 87.4879 2.0026Z" fill="white"/>
<path d="M100.726 1.0415V3.60553H93.5979V8.11717H100.511V10.6812H93.5979V16.2868H100.726V18.8508H90.8652V1.0415H100.726Z" fill="white"/>
<path d="M108.471 1.0415H111.419L116.403 13.4565L121.387 1.0415H124.335L116.403 19.9997L108.471 1.0415Z" fill="white"/>
<path d="M126.586 1.0415H129.319V18.8508H126.586V1.0415Z" fill="white"/>
<path d="M142.663 3.60553H138.563V18.8508H135.829V3.60553H131.729V1.0415H142.663V3.60553Z" fill="white"/>
<path d="M156.384 18.8511L154.514 14.5536H146.875L144.929 18.8511H141.967L150.863 0L159.332 18.8511H156.384ZM147.997 11.9896H153.41L150.755 5.95572L147.997 11.9896Z" fill="white"/>
</g>
<defs>
<clipPath id="clip0_4210_6667">
<rect width="159.333" height="20" fill="white"/>
</clipPath>
</defs>
</svg>
