<svg width="12" height="16" viewBox="0 0 12 16" fill="none" xmlns="http://www.w3.org/2000/svg">
<path d="M6.20093 0.666992C2.15211 0.667603 0 3.24347 0 6.05218C0 7.35448 0.732961 8.97944 1.90656 9.49462C2.24135 9.64434 2.19704 9.46162 2.48505 8.36771C2.50782 8.27666 2.49613 8.19782 2.42228 8.11288C0.744653 6.18601 2.09488 2.22474 5.96154 2.22474C11.5575 2.22474 10.5119 9.91384 6.93512 9.91384C6.01323 9.91384 5.32643 9.19517 5.54367 8.30599C5.80707 7.24692 6.32279 6.1084 6.32279 5.34511C6.32279 3.42131 3.43648 3.7067 3.43648 6.25568C3.43648 7.04342 3.71711 7.57509 3.71711 7.57509C3.71711 7.57509 2.78845 11.3005 2.61613 11.9965C2.32443 13.1748 2.65552 15.0821 2.68445 15.2465C2.70229 15.3369 2.80445 15.3656 2.86169 15.2911C2.95338 15.1719 4.0759 13.5818 4.39038 12.4323C4.50485 12.0137 4.97441 10.3147 4.97441 10.3147C5.28396 10.8696 6.17632 11.3341 7.12713 11.3341C9.95559 11.3341 12 8.86516 12 5.80162C11.9902 2.86458 9.45895 0.666992 6.20093 0.666992V0.666992Z" fill="black"/>
</svg>
