<svg width="48" height="48" viewBox="0 0 48 48" fill="none" xmlns="http://www.w3.org/2000/svg">
<path d="M0 24C0 19.2533 1.40758 14.6131 4.04473 10.6663C6.68188 6.71954 10.4302 3.6434 14.8156 1.8269C19.201 0.0103989 24.0266 -0.464881 28.6822 0.461164C33.3377 1.38721 37.6141 3.67299 40.9706 7.02945C44.327 10.3859 46.6128 14.6623 47.5388 19.3178C48.4649 23.9734 47.9896 28.799 46.1731 33.1844C44.3566 37.5698 41.2805 41.3181 37.3337 43.9553C33.3869 46.5924 28.7467 48 24 48C17.6348 48 11.5303 45.4714 7.02944 40.9706C2.52856 36.4697 0 30.3652 0 24H0ZM24 44C27.9556 44 31.8224 42.827 35.1114 40.6294C38.4004 38.4318 40.9638 35.3082 42.4776 31.6537C43.9913 27.9992 44.3874 23.9778 43.6157 20.0982C42.844 16.2186 40.9392 12.6549 38.1421 9.85787C35.3451 7.06082 31.7814 5.15601 27.9018 4.3843C24.0222 3.6126 20.0008 4.00867 16.3463 5.52242C12.6918 7.03617 9.56823 9.59962 7.37061 12.8886C5.17298 16.1776 4 20.0444 4 24C4 29.3043 6.10714 34.3914 9.85786 38.1421C11.715 39.9993 13.9198 41.4725 16.3463 42.4776C18.7728 43.4827 21.3736 44 24 44V44Z" fill="white"/>
<path d="M20.001 24C20.001 21.66 20.001 19.34 20.001 17C19.9561 16.726 20.0029 16.4449 20.1341 16.2003C20.2654 15.9557 20.4738 15.7613 20.7269 15.6473C20.98 15.5333 21.2637 15.5061 21.5338 15.5698C21.804 15.6336 22.0456 15.7848 22.221 16L31.781 22.96C31.9939 23.0571 32.1743 23.2133 32.3009 23.4101C32.4274 23.607 32.4947 23.836 32.4947 24.07C32.4947 24.304 32.4274 24.533 32.3009 24.7298C32.1743 24.9266 31.9939 25.0829 31.781 25.18L22.181 32.16C21.991 32.3087 21.7617 32.3988 21.5213 32.4191C21.2809 32.4395 21.0398 32.3893 20.8275 32.2746C20.6152 32.16 20.4409 31.9859 20.3261 31.7737C20.2112 31.5615 20.1608 31.3204 20.181 31.08C20.001 28.74 20.001 26.42 20.001 24Z" fill="white"/>
</svg>
