<svg width="37" height="36" viewBox="0 0 37 36" fill="none" xmlns="http://www.w3.org/2000/svg">
<g clip-path="url(#clip0_4270_6684)">
<path d="M25.5591 14.8053C25.2623 14.7988 25.0411 14.6728 24.9684 14.3751C24.8956 14.0774 24.9618 13.7825 25.2707 13.6388C25.8306 13.3803 26.3906 13.1405 26.958 12.9034C29.4465 11.8626 31.9351 10.8239 34.4237 9.78744C34.5561 9.72978 34.6932 9.68327 34.8333 9.64839C35.1553 9.57373 35.4026 9.67545 35.5426 9.98715C35.6891 10.3147 35.6256 10.5881 35.3289 10.772C34.8763 11.0519 34.3667 11.2115 33.8796 11.4159C31.2834 12.5065 28.6847 13.5912 26.0835 14.67C25.9198 14.7506 25.7413 14.7966 25.5591 14.8053Z" fill="#E1E1E1"/>
<path d="M21.4768 23.6104C21.8501 23.6104 22.0293 23.8455 22.158 24.1563C22.6424 25.3247 23.1342 26.4893 23.6213 27.6568C24.3872 29.4908 25.1518 31.3261 25.9151 33.1627C26.1466 33.7226 26.0607 34.0959 25.679 34.2471C25.275 34.4095 24.9549 34.2023 24.7178 33.634C23.4736 30.6545 22.2293 27.6757 20.985 24.6975C20.7433 24.1096 20.9626 23.6197 21.4768 23.6104Z" fill="#ACACAC"/>
<path d="M16.1443 10.0711C16.134 10.3706 15.9996 10.5927 15.7113 10.6721C15.4229 10.7514 15.1513 10.6991 14.9852 10.421C14.9129 10.2958 14.8505 10.165 14.7986 10.03C13.5792 7.07174 12.3607 4.11314 11.1432 1.15424C10.9124 0.594311 10.9855 0.23098 11.3625 0.0642464C11.7694 -0.11493 12.0951 0.0810442 12.3284 0.647504L16.008 9.59141C16.0812 9.74206 16.1274 9.90443 16.1443 10.0711Z" fill="#0C0C0C"/>
<path d="M2.07941 24.6815C1.74625 24.6675 1.52601 24.548 1.43082 24.2578C1.33563 23.9676 1.40749 23.7072 1.66786 23.5299C1.79076 23.4549 1.9208 23.3924 2.05607 23.3432C4.9988 22.1126 7.94216 20.883 10.8861 19.6542C10.9524 19.6263 11.0186 19.5973 11.0868 19.5721C11.5263 19.4041 11.8884 19.5189 12.0386 19.8726C12.1889 20.2263 12.0265 20.566 11.5832 20.7517C9.28567 21.716 6.98686 22.6772 4.6868 23.6353C3.9309 23.947 3.17406 24.2634 2.42003 24.576C2.30841 24.6171 2.19471 24.6523 2.07941 24.6815V24.6815Z" fill="#6D6D6D"/>
<path d="M11.4494 14.8777C11.281 14.8785 11.1147 14.8409 10.9632 14.7676C7.94141 13.5078 4.91936 12.2461 1.897 10.9825C1.69169 10.8967 1.49385 10.7959 1.40333 10.5859C1.3504 10.4825 1.32791 10.3663 1.33848 10.2506C1.34906 10.135 1.39226 10.0247 1.46306 9.93265C1.53112 9.83929 1.62454 9.76743 1.73222 9.72558C1.83991 9.68373 1.95734 9.67365 2.07058 9.69654C2.21182 9.72669 2.34946 9.77174 2.48119 9.83092C5.44818 11.069 8.41424 12.3089 11.3794 13.5507C11.5258 13.6051 11.6645 13.6786 11.7918 13.7691C12.0308 13.9557 12.0718 14.2236 11.9785 14.4895C11.9402 14.6003 11.8691 14.6969 11.7745 14.7662C11.68 14.8356 11.5666 14.8745 11.4494 14.8777Z" fill="#3F3F3F"/>
<path d="M16.1929 24.3564C16.177 24.5128 16.1324 24.665 16.0613 24.8052L12.4059 33.6978C12.3966 33.7202 12.3863 33.7417 12.377 33.7641C12.1698 34.2475 11.8348 34.4453 11.4634 34.3044C11.092 34.1635 10.9865 33.7706 11.1834 33.2881C11.6425 32.1614 12.1045 31.036 12.5692 29.9118C13.3394 28.0404 14.1103 26.169 14.8817 24.2976C14.9228 24.1844 14.975 24.0756 15.0376 23.9728C15.2196 23.7022 15.478 23.5995 15.7897 23.7022C16.1014 23.8048 16.2013 24.0512 16.1929 24.3564Z" fill="#898989"/>
<path d="M35.6476 23.947C35.6392 24.4043 35.2463 24.673 34.7787 24.5069C34.1908 24.2923 33.6159 24.0403 33.0364 23.8042C30.6194 22.8088 28.203 21.8134 25.7872 20.8179C25.607 20.7502 25.4336 20.6655 25.2693 20.565C24.9996 20.3877 24.9595 20.1059 25.0425 19.825C25.1256 19.5441 25.358 19.4461 25.6351 19.4424C25.7921 19.447 25.9465 19.4838 26.0887 19.5506C29.0849 20.7825 32.0808 22.0152 35.0764 23.249C35.3853 23.374 35.6578 23.5466 35.6476 23.947Z" fill="#CBCBCB"/>
<path d="M5.86515 30.427C5.75917 30.4268 5.65508 30.3989 5.56318 30.3461C5.47128 30.2934 5.39476 30.2175 5.34121 30.126C5.28765 30.0346 5.25892 29.9307 5.25784 29.8247C5.25677 29.7187 5.2834 29.6143 5.33509 29.5218C5.41637 29.3882 5.5163 29.2669 5.63185 29.1616C7.90391 26.8852 10.1775 24.6103 12.4527 22.337C12.5185 22.2665 12.5883 22.1998 12.6617 22.1373C12.9529 21.9059 13.315 21.9161 13.5464 22.156C13.7779 22.3958 13.7769 22.7159 13.5539 23.0126C13.4856 23.0969 13.4118 23.1764 13.3327 23.2506L6.5324 30.0491C6.34576 30.2357 6.15912 30.4326 5.86515 30.427Z" fill="#7A7A7A"/>
<path d="M31.736 29.7934C31.7276 30.2833 31.2834 30.5595 30.8644 30.3654C30.7047 30.2797 30.5616 30.1663 30.4417 30.0304C28.1883 27.7751 25.933 25.5196 23.6759 23.2637C23.241 22.8279 23.171 22.4676 23.4566 22.1662C23.7421 21.8648 24.1341 21.9208 24.5764 22.3613L31.3945 29.1802C31.5746 29.3603 31.7528 29.5405 31.736 29.7934Z" fill="#BEBEBE"/>
<path d="M31.0913 3.96349C31.613 3.95416 31.8864 4.40303 31.668 4.84724C31.5802 5.00578 31.4667 5.14864 31.3321 5.26999L24.584 12.0171C24.5251 12.0785 24.4628 12.1364 24.3974 12.1907C24.067 12.4529 23.6956 12.4539 23.453 12.1907C23.2103 11.9275 23.2253 11.5673 23.5341 11.2575C25.8871 8.90578 28.2388 6.55533 30.5892 4.20612C30.7404 4.05494 30.9121 3.95416 31.0913 3.96349Z" fill="#ECECEC"/>
<path d="M13.7197 11.7829C13.718 11.8912 13.6879 11.9971 13.6324 12.0901C13.5769 12.1831 13.4979 12.2598 13.4034 12.3127C13.3089 12.3655 13.2021 12.3926 13.0939 12.3912C12.9856 12.3897 12.8796 12.3599 12.7865 12.3046C12.6648 12.2263 12.554 12.1321 12.4571 12.0246C10.1645 9.71771 7.87343 7.40957 5.58395 5.10018C5.45703 4.9714 5.32078 4.84634 5.27879 4.66623C5.24698 4.55481 5.25144 4.43616 5.29154 4.32745C5.33164 4.21873 5.40528 4.12559 5.50183 4.06151C5.59775 3.98676 5.71424 3.94312 5.83567 3.93645C5.9571 3.92977 6.07767 3.96039 6.1812 4.02418C6.30344 4.10256 6.41483 4.19669 6.51249 4.30415C8.797 6.58492 11.0806 8.86662 13.3632 11.1493C13.5442 11.3228 13.7197 11.5048 13.7197 11.7829Z" fill="#2B2B2B"/>
<path d="M5.6461 17.8418C4.04346 17.8418 2.44114 17.8418 0.839125 17.8418C0.694876 17.8462 0.55065 17.8324 0.409847 17.8007C0.129883 17.727 -0.00543244 17.5142 0.000166837 17.2343C0.00576611 16.9543 0.136416 16.7443 0.426645 16.6827C0.580286 16.6524 0.736652 16.638 0.893251 16.6398C4.07426 16.6398 7.25496 16.6398 10.4353 16.6398C11.055 16.6398 11.3284 16.8264 11.334 17.2343C11.3396 17.6589 11.0625 17.8446 10.4176 17.8446L5.6461 17.8418Z" fill="#515151"/>
<path d="M31.3313 17.845H26.6717C26.5784 17.845 26.4786 17.845 26.3824 17.845C25.956 17.8254 25.6984 17.6136 25.6769 17.2683C25.6573 16.9501 25.8906 16.7084 26.2966 16.6468C26.4276 16.6283 26.5599 16.6202 26.6923 16.6225C29.8104 16.6225 32.9289 16.6225 36.0477 16.6225C36.2157 16.6189 36.3834 16.6365 36.547 16.6748C36.8335 16.7494 37.0136 16.9492 36.9996 17.2506C36.9856 17.552 36.8027 17.7629 36.4938 17.8226C36.3511 17.8439 36.2068 17.8517 36.0626 17.846C34.4855 17.8466 32.9084 17.8463 31.3313 17.845Z" fill="#D5D5D5"/>
<path d="M19.089 29.9562C19.089 31.5327 19.089 33.1096 19.089 34.6867C19.089 34.8071 19.089 34.9275 19.0834 35.0478C19.0554 35.4211 18.8258 35.6712 18.5132 35.6778C18.2006 35.6843 17.9318 35.4239 17.9234 35.0329C17.9085 34.3797 17.9159 33.733 17.9159 33.0834C17.9159 30.4474 17.9159 27.8114 17.9159 25.1754C17.9118 25.0309 17.9162 24.8863 17.929 24.7424C17.9691 24.4018 18.1819 24.203 18.4889 24.1983C18.8155 24.1937 19.0358 24.398 19.075 24.7582C19.0859 24.8901 19.0897 25.0226 19.0862 25.1549C19.0887 26.755 19.0896 28.3555 19.089 29.9562Z" fill="#9A9A9A"/>
</g>
<defs>
<clipPath id="clip0_4270_6684">
<rect width="37" height="35.6776" fill="white"/>
</clipPath>
</defs>
</svg>
