<svg width="14" height="12" viewBox="0 0 14 12" fill="none" xmlns="http://www.w3.org/2000/svg">
<path d="M14 1.8479C13.4847 2.06652 12.9318 2.21479 12.3509 2.28098C12.9441 1.94088 13.3981 1.40143 13.6133 0.760605C13.0569 1.07556 12.4428 1.30426 11.7884 1.42824C11.2644 0.892971 10.519 0.55957 9.69227 0.55957C8.1062 0.55957 6.82018 1.79095 6.82018 3.30881C6.82018 3.52408 6.84555 3.73433 6.89455 3.93539C4.50801 3.82061 2.39178 2.72579 0.975426 1.06216C0.727841 1.4676 0.586994 1.94003 0.586994 2.44432C0.586994 3.39844 1.0944 4.24029 1.86427 4.73283C1.3936 4.71776 0.950926 4.59378 0.563387 4.38771V4.42205C0.563387 5.75395 1.55371 6.86553 2.86682 7.11852C2.62624 7.18051 2.37255 7.21486 2.11009 7.21486C1.92464 7.21486 1.74529 7.19727 1.56944 7.16375C1.93511 8.25692 2.99543 9.05186 4.25171 9.07365C3.26926 9.81081 2.03048 10.2489 0.684995 10.2489C0.453171 10.2489 0.224824 10.2355 0 10.2112C1.27114 10.9928 2.78024 11.4485 4.40218 11.4485C9.68532 11.4485 12.5732 7.25842 12.5732 3.62462L12.5635 3.26861C13.1278 2.88325 13.6159 2.39909 14 1.8479Z" fill="black"/>
</svg>
