<svg width="20" height="12" viewBox="0 0 20 12" fill="none" xmlns="http://www.w3.org/2000/svg">
<path d="M11.6825 2.92224C11.6825 3.63856 11.6825 4.35487 11.6825 5.07172C11.6819 5.1921 11.6922 5.31227 11.7133 5.43068C11.7815 5.79125 12.0256 5.93376 12.325 5.73821C12.6164 5.55004 12.8816 5.32205 13.1133 5.06047C14.0442 3.99698 14.7346 2.76901 15.348 1.49497C15.4865 1.2078 15.6151 0.915277 15.7426 0.622215C15.9196 0.213964 16.2206 -0.000340587 16.6585 -0.000340587C17.4134 -0.000340587 18.1684 -0.000340587 18.9228 -0.000340587C19.0137 -0.00105917 19.1045 0.00937238 19.193 0.0307336C19.4986 0.108955 19.6543 0.312009 19.5668 0.622751C19.4553 1.04043 19.3041 1.44581 19.1154 1.83304C18.4178 3.21316 17.5535 4.48667 16.6845 5.75589C16.2648 6.3688 16.2877 6.54453 16.7839 7.08833C17.5764 7.95626 18.3678 8.82634 19.1311 9.72106C19.4086 10.0586 19.6457 10.4294 19.8371 10.8253C20.2052 11.5566 19.9318 11.9895 19.1326 11.9932C18.4625 11.9964 17.7919 11.9804 17.1224 11.9986C16.9204 12.0092 16.7187 11.9742 16.5313 11.896C16.3439 11.8177 16.1755 11.6982 16.0378 11.5459C15.6041 11.0835 15.1954 10.5949 14.7435 10.1529C14.264 9.68356 13.7589 9.23941 13.2414 8.81348C12.942 8.56757 12.5978 8.38487 12.1876 8.40095C11.8694 8.41434 11.744 8.51185 11.7148 8.83545C11.6877 9.13494 11.6804 9.43657 11.6778 9.73714C11.6732 10.2124 11.6836 10.6881 11.681 11.1633C11.681 11.5994 11.53 11.8384 11.1119 11.892C10.5865 11.9589 10.0451 12.0093 9.52181 11.9536C7.49905 11.7393 5.87252 10.7069 4.48497 9.23406C3.57017 8.26218 2.86364 7.12797 2.18054 5.97984C1.35113 4.58364 0.636793 3.13012 0.184342 1.55337C0.117705 1.31579 0.0634787 1.07471 0.0218965 0.831162C-0.0728631 0.293257 0.139565 0.0135892 0.66647 0.00608856C1.44746 -0.00462668 2.22844 0.00608856 3.00943 0.00287399C3.37389 0.00287399 3.63786 0.174318 3.77896 0.513455C3.95025 0.924921 4.09135 1.34817 4.25952 1.76178C4.85724 3.25763 5.55336 4.69883 6.55042 5.96483C6.73216 6.18316 6.93027 6.38648 7.14292 6.57293C7.23157 6.64924 7.33454 6.70596 7.44542 6.73955C7.6641 6.81027 7.82967 6.70687 7.8885 6.47756C7.91069 6.40057 7.92328 6.321 7.92599 6.24075C7.92859 5.00207 7.93953 3.76392 7.92599 2.52524C7.91751 2.01078 7.73485 1.51548 7.4095 1.12476C7.3197 1.01881 7.2374 0.906369 7.16323 0.788301C6.96382 0.450235 7.14813 0.0623436 7.52769 0.00769584C7.59286 0.000353639 7.65845 -0.00233161 7.72398 -0.000340587C8.81076 -0.000340587 9.89807 -0.000340587 10.9859 -0.000340587C11.4941 -0.000340587 11.6726 0.170032 11.6789 0.691864C11.6877 1.43497 11.6789 2.17807 11.6789 2.92171L11.6825 2.92224Z" fill="black"/>
</svg>
